<svg width="832" height="834" viewBox="0 0 832 834" fill="none" xmlns="http://www.w3.org/2000/svg">
<path d="M814.436 585.88C823.768 603.596 829.518 622.977 831.356 642.915C833.195 662.853 831.086 682.959 825.15 702.082C819.215 721.205 809.569 738.971 796.764 754.364C783.959 769.757 768.246 782.476 750.523 791.794L701.575 817.584L689.539 823.914C678.481 829.734 666.234 832.934 653.743 833.268C641.252 833.602 628.851 831.062 617.498 825.842L426.341 744.175L444.342 690.772L558.025 712.732L499.151 600.859L404.368 420.761L450.542 396.469L545.326 576.62L568.133 564.624L526.348 485.17L572.496 460.892L614.28 540.345L637.088 528.349L604.823 467.026L650.998 442.734L683.262 504.057L706.082 491.957L683.939 449.755L730.099 425.529L752.243 467.73L814.424 585.919L814.436 585.88ZM372.939 445.066C363.347 435.466 356.814 423.239 354.165 409.929C351.516 396.618 352.869 382.822 358.055 370.28C363.24 357.739 372.024 347.014 383.299 339.461C394.574 331.908 407.834 327.864 421.405 327.84C432.403 327.853 443.237 330.503 452.999 335.568C462.76 340.634 471.165 347.967 477.506 356.952C483.847 365.937 487.941 376.312 489.443 387.207C490.946 398.101 489.813 409.197 486.14 419.564L498.254 442.461C506.357 428.877 510.719 413.389 510.895 397.573C511.072 381.756 507.057 366.175 499.259 352.414C491.461 338.652 480.158 327.201 466.499 319.224C452.84 311.247 437.313 307.03 421.496 307C398.317 307.003 376.044 315.998 359.363 332.09C342.682 348.183 332.893 370.119 332.058 393.283C331.223 416.446 339.406 439.03 354.884 456.283C370.363 473.535 391.931 484.11 415.049 485.783L402.869 462.624C391.547 459.446 381.238 453.398 372.939 445.066Z" fill="white"/>
<path d="M65.8203 229.977C46.8099 229.977 32.7474 224.964 23.6328 214.938C14.5182 204.911 9.96094 189.319 9.96094 168.16C9.96094 126.949 28.6784 106.344 66.1133 106.344C71.582 106.344 76.888 106.93 82.0312 108.102C87.1745 109.208 91.3411 110.608 94.5312 112.301C97.7214 113.993 99.3164 115.621 99.3164 117.184C99.3164 118.16 98.9583 119.462 98.2422 121.09C97.5911 122.717 96.8099 124.15 95.8984 125.387C94.987 126.624 94.1732 127.242 93.457 127.242C93.1315 127.242 92.2201 126.819 90.7227 125.973C87.3372 124.15 83.7891 122.62 80.0781 121.383C76.3672 120.146 71.8424 119.527 66.5039 119.527C52.5065 119.527 42.1875 123.434 35.5469 131.246C28.9714 138.993 25.6836 151.363 25.6836 168.355C25.6836 184.957 28.9388 197.197 35.4492 205.074C42.0247 212.887 52.1484 216.793 65.8203 216.793C71.5495 216.793 76.4648 216.109 80.5664 214.742C84.668 213.375 88.6068 211.682 92.3828 209.664C94.2057 208.688 95.3125 208.199 95.7031 208.199C96.4193 208.199 97.2331 208.818 98.1445 210.055C99.1211 211.292 99.9674 212.691 100.684 214.254C101.4 215.751 101.758 216.826 101.758 217.477C101.758 219.104 100.098 220.927 96.7773 222.945C93.5221 224.898 89.1276 226.559 83.5938 227.926C78.125 229.293 72.2005 229.977 65.8203 229.977ZM144.238 229.977C138.444 229.977 133.268 228.219 128.711 224.703C124.154 221.188 121.875 214.97 121.875 206.051V102.242C121.875 99.7031 124.186 98.4336 128.809 98.4336H129.59C134.147 98.4336 136.426 99.7031 136.426 102.242V204.684C136.426 209.436 137.272 212.757 138.965 214.645C140.658 216.533 142.936 217.477 145.801 217.477C147.949 217.477 149.642 217.346 150.879 217.086C152.116 216.826 152.93 216.695 153.32 216.695C154.362 216.695 155.208 217.737 155.859 219.82C156.576 221.904 156.934 223.564 156.934 224.801C156.934 228.251 152.702 229.977 144.238 229.977ZM181.445 116.305C176.823 116.305 174.512 115.035 174.512 112.496V102.242C174.512 99.7031 176.823 98.4336 181.445 98.4336H183.496C188.184 98.4336 190.527 99.7031 190.527 102.242V112.496C190.527 115.035 188.184 116.305 183.496 116.305H181.445ZM182.129 229.293C177.507 229.293 175.195 228.023 175.195 225.484V141.695C175.195 139.156 177.507 137.887 182.129 137.887H182.812C187.5 137.887 189.844 139.156 189.844 141.695V225.484C189.844 228.023 187.5 229.293 182.812 229.293H182.129ZM257.227 229.977C242.839 229.977 232.096 226.298 225 218.941C217.969 211.52 214.453 199.605 214.453 183.199C214.453 166.598 218.392 154.781 226.27 147.75C234.147 140.719 243.945 137.203 255.664 137.203C260.026 137.203 264.225 137.594 268.262 138.375C272.298 139.091 275.553 140.068 278.027 141.305C280.501 142.542 281.738 143.844 281.738 145.211C281.738 146.122 281.413 147.327 280.762 148.824C280.176 150.322 279.427 151.656 278.516 152.828C277.669 153.935 276.888 154.488 276.172 154.488C275.977 154.488 275.684 154.423 275.293 154.293C274.902 154.098 274.544 153.935 274.219 153.805C268.359 151.07 262.044 149.703 255.273 149.703C247.266 149.703 241.081 152.34 236.719 157.613C232.357 162.822 230.176 171.22 230.176 182.809C230.176 191.012 231.055 197.652 232.812 202.73C234.57 207.743 237.402 211.454 241.309 213.863C245.28 216.272 250.553 217.477 257.129 217.477C264.355 217.477 270.866 215.979 276.66 212.984C277.246 212.854 277.669 212.724 277.93 212.594C278.255 212.398 278.483 212.301 278.613 212.301C279.329 212.301 280.143 212.854 281.055 213.961C281.966 215.068 282.747 216.337 283.398 217.77C284.115 219.202 284.473 220.341 284.473 221.188C284.473 222.555 283.236 223.922 280.762 225.289C278.288 226.656 274.935 227.796 270.703 228.707C266.536 229.553 262.044 229.977 257.227 229.977ZM312.988 229.293C308.301 229.293 305.957 228.023 305.957 225.484V102.242C305.957 99.7031 308.301 98.4336 312.988 98.4336H313.672C318.294 98.4336 320.605 99.7031 320.605 102.242V179.879H321.289L354.492 140.23C355.729 138.668 358.789 137.887 363.672 137.887H364.258C366.276 137.887 367.806 138.082 368.848 138.473C369.889 138.863 370.41 139.384 370.41 140.035C370.41 141.012 369.824 142.184 368.652 143.551L336.328 181.734L372.168 224.117C373.145 225.224 373.633 226.135 373.633 226.852C373.633 227.828 373.079 228.479 371.973 228.805C370.866 229.13 368.913 229.293 366.113 229.293H365.332C362.923 229.293 360.97 229.163 359.473 228.902C357.975 228.642 356.803 228.023 355.957 227.047L321.289 185.836H320.605V225.484C320.605 228.023 318.294 229.293 313.672 229.293H312.988ZM528.809 137.203C536.035 137.203 542.383 139.254 547.852 143.355C553.32 147.457 556.055 154.749 556.055 165.23V225.484C556.055 226.786 555.501 227.763 554.395 228.414C553.288 229 551.53 229.293 549.121 229.293H548.535C546.061 229.293 544.271 229 543.164 228.414C542.057 227.763 541.504 226.786 541.504 225.484V166.695C541.504 161.422 540.072 157.288 537.207 154.293C534.408 151.298 530.273 149.801 524.805 149.801C520.247 149.801 516.113 151.135 512.402 153.805C508.757 156.409 505.794 159.143 503.516 162.008C503.646 163.57 503.711 164.742 503.711 165.523V225.484C503.711 228.023 501.367 229.293 496.68 229.293H495.996C491.374 229.293 489.062 228.023 489.062 225.484V166.695C489.062 161.422 487.63 157.288 484.766 154.293C481.966 151.298 477.832 149.801 472.363 149.801C468.587 149.801 465.137 150.712 462.012 152.535C458.887 154.293 456.283 156.214 454.199 158.297C452.181 160.38 451.172 161.552 451.172 161.812V225.484C451.172 226.786 450.618 227.763 449.512 228.414C448.47 229 446.745 229.293 444.336 229.293H443.555C441.146 229.293 439.388 229 438.281 228.414C437.24 227.763 436.719 226.786 436.719 225.484V164.547C436.719 156.995 436.361 151.559 435.645 148.238C434.928 144.853 434.57 142.997 434.57 142.672C434.57 141.24 435.645 140.23 437.793 139.645C440.007 138.993 442.057 138.668 443.945 138.668C445.573 138.668 446.777 139.547 447.559 141.305C448.34 143.062 448.893 144.853 449.219 146.676C449.609 148.499 449.87 149.671 450 150.191C453.19 146.48 457.096 143.388 461.719 140.914C466.341 138.44 471.224 137.203 476.367 137.203C481.641 137.203 486.556 138.277 491.113 140.426C495.671 142.509 499.023 146.22 501.172 151.559C504.753 147.327 508.952 143.876 513.77 141.207C518.587 138.538 523.6 137.203 528.809 137.203ZM621.289 229.977C606.901 229.977 596.191 226.233 589.16 218.746C582.194 211.194 578.711 199.671 578.711 184.176C578.711 168.811 582.129 157.158 588.965 149.215C595.801 141.207 605.859 137.203 619.141 137.203C630.99 137.203 639.909 141.044 645.898 148.727C651.953 156.409 654.98 167.672 654.98 182.516C654.98 183.167 654.622 184.078 653.906 185.25C653.255 186.357 652.441 187.366 651.465 188.277C650.553 189.124 649.772 189.547 649.121 189.547H594.336C595.052 199.247 597.526 206.344 601.758 210.836C606.055 215.263 612.5 217.477 621.094 217.477C625.911 217.477 630.046 216.891 633.496 215.719C637.012 214.547 640.397 213.115 643.652 211.422C643.978 211.292 644.466 211.064 645.117 210.738C645.768 210.413 646.224 210.25 646.484 210.25C647.201 210.25 648.014 210.836 648.926 212.008C649.902 213.115 650.716 214.384 651.367 215.816C652.083 217.184 652.441 218.193 652.441 218.844C652.441 220.276 651.009 221.871 648.145 223.629C645.28 225.387 641.439 226.884 636.621 228.121C631.868 229.358 626.758 229.977 621.289 229.977ZM639.453 177.047C639.453 158.818 632.52 149.703 618.652 149.703C603.743 149.703 595.638 158.818 594.336 177.047H639.453Z" fill="white"/>
</svg>
