<?xml version="1.0" encoding="UTF-8"?>
<svg xmlns="http://www.w3.org/2000/svg" xmlns:xlink="http://www.w3.org/1999/xlink" width="477.87pt" height="407pt" viewBox="0 0 477.87 407" version="1.1">
<defs>
<clipPath id="clip1">
  <path d="M 424 300 L 477.871094 300 L 477.871094 354 L 424 354 Z M 424 300 "/>
</clipPath>
</defs>
<g id="surface1">
<path style=" stroke:none;fill-rule:nonzero;fill:rgb(13.699341%,12.199402%,12.5%);fill-opacity:1;" d="M 450.589844 325.585938 L 445.863281 325.585938 L 445.863281 316.015625 L 451.847656 316.015625 C 454.960938 316.015625 458.480469 316.523438 458.480469 320.574219 C 458.480469 325.210938 454.929688 325.585938 450.589844 325.585938 Z M 455.292969 328.433594 C 460.070313 327.851563 462.578125 325.210938 462.578125 320.792969 C 462.578125 315.40625 459.300781 312.789063 452.585938 312.789063 L 441.8125 312.789063 L 441.8125 341.132813 L 445.863281 341.132813 L 445.863281 328.789063 L 450.875 328.789063 L 450.972656 328.941406 L 458.769531 341.132813 L 463.097656 341.132813 L 454.75 328.511719 L 455.292969 328.433594 "/>
<g clip-path="url(#clip1)" clip-rule="nonzero">
<path style=" stroke:none;fill-rule:nonzero;fill:rgb(13.699341%,12.199402%,12.5%);fill-opacity:1;" d="M 451.050781 350.296875 C 438.222656 350.296875 428.152344 340.160156 428.152344 327 C 428.152344 313.851563 438.222656 303.703125 451.050781 303.703125 C 463.890625 303.703125 473.9375 313.851563 473.9375 327 C 473.9375 340.160156 463.890625 350.296875 451.050781 350.296875 Z M 451.050781 300.191406 C 436.003906 300.191406 424.214844 311.964844 424.214844 327 C 424.214844 342.046875 436.003906 353.804688 451.050781 353.804688 C 466.078125 353.804688 477.871094 342.046875 477.871094 327 C 477.871094 311.964844 466.078125 300.191406 451.050781 300.191406 "/>
</g>
<path style=" stroke:none;fill-rule:nonzero;fill:rgb(0%,48.199463%,71.398926%);fill-opacity:1;" d="M 376.882813 0 L 30.019531 0 C 13.457031 0 0 13.136719 0 29.347656 L 0 377.632813 C 0 393.839844 13.457031 407 30.019531 407 L 376.882813 407 C 393.476563 407 406.988281 393.839844 406.988281 377.632813 L 406.988281 29.347656 C 406.988281 13.136719 393.476563 0 376.882813 0 "/>
<path style=" stroke:none;fill-rule:nonzero;fill:rgb(100%,100%,100%);fill-opacity:1;" d="M 90.53125 56.03125 C 109.84375 56.03125 125.519531 71.714844 125.519531 91.035156 C 125.519531 110.363281 109.84375 126.046875 90.53125 126.046875 C 71.144531 126.046875 55.511719 110.363281 55.511719 91.035156 C 55.511719 71.714844 71.144531 56.03125 90.53125 56.03125 M 60.304688 152.582031 L 120.730469 152.582031 L 120.730469 346.808594 L 60.304688 346.808594 L 60.304688 152.582031 "/>
<path style=" stroke:none;fill-rule:nonzero;fill:rgb(100%,100%,100%);fill-opacity:1;" d="M 158.597656 152.582031 L 216.460938 152.582031 L 216.460938 179.132813 L 217.289063 179.132813 C 225.339844 163.863281 245.035156 147.761719 274.402344 147.761719 C 335.523438 147.761719 346.816406 187.976563 346.816406 240.285156 L 346.816406 346.808594 L 286.460938 346.808594 L 286.460938 252.355469 C 286.460938 229.832031 286.070313 200.855469 255.09375 200.855469 C 223.683594 200.855469 218.890625 225.40625 218.890625 250.742188 L 218.890625 346.808594 L 158.597656 346.808594 L 158.597656 152.582031 "/>
</g>
</svg>
